<svg xmlns="http://www.w3.org/2000/svg" fill="none" viewBox="0 0 216 160">
  <defs/>
  <g filter="url(#filter0_bd)">
    <path fill="#fff" fill-opacity=".5" d="M140.782 58H71c-11.046 0-20 8.954-20 20v50c0 11.046 8.954 20 20 20h69.782c11.046 0 20-8.954 20-20V78c0-11.046-8.954-20-20-20z"/>
  </g>
  <g filter="url(#filter1_bd)">
    <path fill="#fff" fill-opacity=".8" d="M15.377 66.742c-9.836-4.99-9.836-13.078 0-18.066L88.19 11.742c9.836-4.99 25.782-4.99 35.617 0l72.815 36.934c9.836 4.988 9.836 13.077 0 18.066l-72.815 36.934c-9.835 4.989-25.781 4.989-35.617 0L15.378 66.742z"/>
  </g>
  <defs>
    <filter id="filter0_bd" width="129.782" height="110" x="43" y="50" color-interpolation-filters="sRGB" filterUnits="userSpaceOnUse">
      <feFlood flood-opacity="0" result="BackgroundImageFix"/>
      <feGaussianBlur in="BackgroundImage" stdDeviation="2.5"/>
      <feComposite in2="SourceAlpha" operator="in" result="effect1_backgroundBlur"/>
      <feColorMatrix in="SourceAlpha" values="0 0 0 0 0 0 0 0 0 0 0 0 0 0 0 0 0 0 127 0"/>
      <feOffset dx="2" dy="2"/>
      <feGaussianBlur stdDeviation="5"/>
      <feColorMatrix values="0 0 0 0 0 0 0 0 0 0 0 0 0 0 0 0 0 0 0.25 0"/>
      <feBlend in2="effect1_backgroundBlur" result="effect2_dropShadow"/>
      <feBlend in="SourceGraphic" in2="effect2_dropShadow" result="shape"/>
    </filter>
    <filter id="filter1_bd" width="216" height="119.417" x="0" y="0" color-interpolation-filters="sRGB" filterUnits="userSpaceOnUse">
      <feFlood flood-opacity="0" result="BackgroundImageFix"/>
      <feGaussianBlur in="BackgroundImage" stdDeviation="2.5"/>
      <feComposite in2="SourceAlpha" operator="in" result="effect1_backgroundBlur"/>
      <feColorMatrix in="SourceAlpha" values="0 0 0 0 0 0 0 0 0 0 0 0 0 0 0 0 0 0 127 0"/>
      <feOffset dx="2" dy="2"/>
      <feGaussianBlur stdDeviation="5"/>
      <feColorMatrix values="0 0 0 0 0 0 0 0 0 0 0 0 0 0 0 0 0 0 0.25 0"/>
      <feBlend in2="effect1_backgroundBlur" result="effect2_dropShadow"/>
      <feBlend in="SourceGraphic" in2="effect2_dropShadow" result="shape"/>
    </filter>
  </defs>
</svg>
