<svg width="216" height="155" viewBox="0 0 216 155" fill="none" xmlns="http://www.w3.org/2000/svg">
<g filter="url(#filter0_bd)">
<path fill-rule="evenodd" clip-rule="evenodd" d="M114.678 67.5628L101.809 61.5498C99.588 60.512 96.9411 61.4764 95.9086 63.6999C85.2327 86.6924 80.0826 100.393 99.1041 109.281C118.126 118.169 125.33 105.428 136.117 82.4877C137.16 80.2692 136.202 77.6202 133.981 76.5824L121.112 70.5693L143.753 22.1143C144.583 20.3375 143.816 18.2241 142.039 17.3939C140.262 16.5637 138.149 17.331 137.319 19.1078L114.678 67.5628Z" fill="white" fill-opacity="0.8"/>
</g>
<g filter="url(#filter1_bd)">
<path d="M152.745 87.3917C155.303 84.2027 161.697 84.2028 164.255 87.3918L203.1 135.825C205.657 139.014 202.461 143 197.345 143H119.655C114.54 143 111.342 139.014 113.9 135.825L152.745 87.3917Z" fill="white" fill-opacity="0.5"/>
</g>
<g filter="url(#filter2_bd)">
<path d="M67.1948 59.5876C71.0041 54.8041 80.5274 54.8041 84.3368 59.5876L142.191 132.237C146 137.021 141.239 143 133.62 143H17.9117C10.293 143 5.53138 137.021 9.3407 132.237L67.1948 59.5876Z" fill="white" fill-opacity="0.7"/>
</g>
<defs>
<filter id="filter0_bd" x="71" y="0" width="103.144" height="130.675" filterUnits="userSpaceOnUse" color-interpolation-filters="sRGB">
<feFlood flood-opacity="0" result="BackgroundImageFix"/>
<feGaussianBlur in="BackgroundImage" stdDeviation="2.5"/>
<feComposite in2="SourceAlpha" operator="in" result="effect1_backgroundBlur"/>
<feColorMatrix in="SourceAlpha" type="matrix" values="0 0 0 0 0 0 0 0 0 0 0 0 0 0 0 0 0 0 127 0"/>
<feOffset dx="2" dy="2"/>
<feGaussianBlur stdDeviation="5"/>
<feColorMatrix type="matrix" values="0 0 0 0 0 0 0 0 0 0 0 0 0 0 0 0 0 0 0.25 0"/>
<feBlend mode="normal" in2="effect1_backgroundBlur" result="effect2_dropShadow"/>
<feBlend mode="normal" in="SourceGraphic" in2="effect2_dropShadow" result="shape"/>
</filter>
<filter id="filter1_bd" x="105" y="77" width="111" height="78" filterUnits="userSpaceOnUse" color-interpolation-filters="sRGB">
<feFlood flood-opacity="0" result="BackgroundImageFix"/>
<feGaussianBlur in="BackgroundImage" stdDeviation="2.5"/>
<feComposite in2="SourceAlpha" operator="in" result="effect1_backgroundBlur"/>
<feColorMatrix in="SourceAlpha" type="matrix" values="0 0 0 0 0 0 0 0 0 0 0 0 0 0 0 0 0 0 127 0"/>
<feOffset dx="2" dy="2"/>
<feGaussianBlur stdDeviation="5"/>
<feColorMatrix type="matrix" values="0 0 0 0 0 0 0 0 0 0 0 0 0 0 0 0 0 0 0.25 0"/>
<feBlend mode="normal" in2="effect1_backgroundBlur" result="effect2_dropShadow"/>
<feBlend mode="normal" in="SourceGraphic" in2="effect2_dropShadow" result="shape"/>
</filter>
<filter id="filter2_bd" x="0" y="48" width="155.532" height="107" filterUnits="userSpaceOnUse" color-interpolation-filters="sRGB">
<feFlood flood-opacity="0" result="BackgroundImageFix"/>
<feGaussianBlur in="BackgroundImage" stdDeviation="2.5"/>
<feComposite in2="SourceAlpha" operator="in" result="effect1_backgroundBlur"/>
<feColorMatrix in="SourceAlpha" type="matrix" values="0 0 0 0 0 0 0 0 0 0 0 0 0 0 0 0 0 0 127 0"/>
<feOffset dx="2" dy="2"/>
<feGaussianBlur stdDeviation="5"/>
<feColorMatrix type="matrix" values="0 0 0 0 0 0 0 0 0 0 0 0 0 0 0 0 0 0 0.25 0"/>
<feBlend mode="normal" in2="effect1_backgroundBlur" result="effect2_dropShadow"/>
<feBlend mode="normal" in="SourceGraphic" in2="effect2_dropShadow" result="shape"/>
</filter>
</defs>
</svg>
