<svg width="40" height="40" viewBox="0 0 40 40" fill="none" xmlns="http://www.w3.org/2000/svg">
<circle cx="20" cy="20" r="19.5" stroke="#FFE2FF" stroke-opacity="0.5"/>
<path d="M27.0383 18.877C26.9728 18.8664 26.9066 18.8614 26.8403 18.8623H15.5526L15.7987 18.7478C16.0393 18.634 16.2582 18.479 16.4456 18.2899L19.6109 15.1246C20.0278 14.7266 20.0978 14.0864 19.7769 13.6077C19.4034 13.0976 18.6871 12.9868 18.1769 13.3604C18.1357 13.3906 18.0965 13.4235 18.0597 13.4589L12.3358 19.1828C11.8884 19.6297 11.888 20.3545 12.3349 20.8018C12.3351 20.8021 12.3355 20.8024 12.3358 20.8027L18.0597 26.5267C18.5074 26.9731 19.2322 26.9721 19.6787 26.5244C19.7138 26.4892 19.7466 26.4517 19.7769 26.4122C20.0978 25.9335 20.0278 25.2933 19.6109 24.8954L16.4513 21.7243C16.2833 21.5561 16.0902 21.4152 15.8789 21.3064L15.5354 21.1519H26.7773C27.3621 21.1736 27.8752 20.7651 27.9851 20.1903C28.0863 19.5662 27.6624 18.9782 27.0383 18.877Z" fill="#FFE2FF"/>
</svg>
