<svg width="40" height="40" viewBox="0 0 40 40" fill="none" xmlns="http://www.w3.org/2000/svg">
<circle cx="20" cy="20" r="19.5" stroke="#FFE2FF" stroke-opacity="0.5"/>
<path d="M29.3288 14.1874L27.9269 14.1874V12.7361C27.9269 12.4039 27.6838 12.1216 27.3552 12.0724C27.2978 12.0638 25.932 11.8654 24.2874 12.1647C22.4539 12.4983 20.9917 13.321 20 14.5647C19.0082 13.321 17.546 12.4983 15.7126 12.1647C14.0679 11.8655 12.7021 12.0638 12.6448 12.0724C12.3162 12.1216 12.0731 12.4039 12.0731 12.7361V14.1874H10.6711C10.3005 14.1874 10 14.4879 10 14.8585V27.5053C10 27.7226 10.1052 27.9264 10.2824 28.0524C10.4595 28.1783 10.6867 28.2106 10.8918 28.1391C10.9422 28.1217 15.9714 26.4053 19.7214 28.1159C19.8984 28.1966 20.1016 28.1966 20.2786 28.1159C24.0181 26.4102 29.058 28.1218 29.1081 28.1391C29.1801 28.1642 29.2545 28.1765 29.3288 28.1765C29.4663 28.1765 29.6025 28.1342 29.7176 28.0524C29.8948 27.9265 30 27.7227 30 27.5054V14.8586C29.9999 14.488 29.6995 14.1874 29.3288 14.1874ZM11.3423 26.6073V15.5296H12.0731V24.4674C12.0731 24.6624 12.1584 24.8476 12.3059 24.9751C12.4535 25.1025 12.6497 25.1597 12.8425 25.1312C12.8796 25.1258 15.7951 24.7256 17.9252 26.1871C15.3013 25.7384 12.6752 26.2574 11.3423 26.6073ZM19.3289 25.5818C18.3907 24.7341 17.1687 24.1609 15.7126 23.896C15.0118 23.7685 14.3617 23.7313 13.8419 23.7313C13.6875 23.7313 13.5446 23.7346 13.4154 23.7398V13.3524H13.4153C14.7052 13.2942 17.8431 13.4321 19.3289 15.9509V25.5818ZM20.6711 15.9509C22.1515 13.443 25.2943 13.2988 26.5846 13.3541V23.7398C26.0201 23.717 25.196 23.7306 24.2874 23.896C22.8313 24.1609 21.6093 24.7341 20.6711 25.5818V15.9509ZM22.0725 26.1875C24.2028 24.7251 27.1199 25.1258 27.1563 25.1312C27.3496 25.1602 27.5457 25.1034 27.6937 24.9759C27.8418 24.8484 27.9269 24.6628 27.9269 24.4674V15.5297H28.6576V26.6073C27.3243 26.2572 24.6971 25.738 22.0725 26.1875Z" fill="#FFE2FF"/>
</svg>
