<svg width="40" height="40" viewBox="0 0 40 40" fill="none" xmlns="http://www.w3.org/2000/svg">
<circle cx="20" cy="20" r="19.5" stroke="#FFE2FF" stroke-opacity="0.5"/>
<path fill-rule="evenodd" clip-rule="evenodd" d="M13.2929 25.5076C12.9024 25.8981 12.9024 26.5313 13.2929 26.9218C13.6834 27.3123 14.3166 27.3123 14.7071 26.9218L20.1073 21.5216L25.5076 26.9218C25.8981 27.3123 26.5313 27.3123 26.9218 26.9218C27.3123 26.5313 27.3123 25.8981 26.9218 25.5076L21.5216 20.1074L26.9218 14.7071C27.3123 14.3166 27.3123 13.6834 26.9218 13.2929C26.5313 12.9024 25.8981 12.9024 25.5076 13.2929L20.1073 18.6931L14.7071 13.2929C14.3166 12.9024 13.6834 12.9024 13.2929 13.2929C12.9024 13.6834 12.9024 14.3166 13.2929 14.7071L18.6931 20.1074L13.2929 25.5076Z" fill="#FFE2FF"/>
</svg>
