<svg width="40" height="40" viewBox="0 0 40 40" fill="none" xmlns="http://www.w3.org/2000/svg">
<circle cx="20" cy="20" r="19.5" stroke="#FFE2FF" stroke-opacity="0.5"/>
<path d="M21.688 13.256C21.688 12.032 20.992 11.408 19.792 11.408C18.592 11.408 17.896 12.032 17.896 13.256V16.04C17.896 16.4 17.944 16.784 17.992 17.168L18.736 22.784C18.832 23.48 19.168 23.672 19.792 23.672C20.416 23.672 20.752 23.48 20.848 22.784L21.592 17.168C21.64 16.784 21.688 16.4 21.688 16.04V13.256ZM17.824 27.2C17.824 28.28 18.712 29.168 19.792 29.168C20.872 29.168 21.76 28.28 21.76 27.2C21.76 26.12 20.872 25.232 19.792 25.232C18.712 25.232 17.824 26.12 17.824 27.2Z" fill="#FFE2FF"/>
</svg>
