<svg width="40" height="40" viewBox="0 0 40 40" fill="none" xmlns="http://www.w3.org/2000/svg">
<circle cx="20" cy="20" r="19.5" stroke="#FFE2FF" stroke-opacity="0.5"/>
<path d="M14.032 15.848C14.032 16.808 14.752 17.312 15.592 17.312C17.92 17.312 16.72 14.144 19.792 14.144C21.232 14.144 22.096 14.912 22.096 16.208C22.096 18.56 17.896 19.208 17.896 22.064C17.896 22.832 18.4 23.672 19.432 23.672C21.016 23.672 20.824 22.496 21.4 21.656C22.168 20.528 25.744 19.328 25.744 16.208C25.744 12.824 22.72 11.408 19.648 11.408C16.72 11.408 14.032 13.496 14.032 15.848ZM17.56 27.2C17.56 28.28 18.448 29.168 19.528 29.168C20.608 29.168 21.496 28.28 21.496 27.2C21.496 26.12 20.608 25.232 19.528 25.232C18.448 25.232 17.56 26.12 17.56 27.2Z" fill="#FFE2FF"/>
</svg>
